<svg xmlns="http://www.w3.org/2000/svg" viewBox="0 0 100 100">
  <circle cx="50" cy="50" r="45" fill="#4A90D9" stroke="#2C5F8A" stroke-width="2"/>
  <path d="M50 5 C30 5 15 25 15 50 C15 75 30 95 50 95 C70 95 85 75 85 50 C85 25 70 5 50 5Z" fill="#3A7BC8"/>
  <path d="M50 5 Q35 30 35 50 Q35 70 50 95" fill="none" stroke="#2E6BA8" stroke-width="1.5" opacity="0.5"/>
  <path d="M50 5 Q65 30 65 50 Q65 70 50 95" fill="none" stroke="#2E6BA8" stroke-width="1.5" opacity="0.5"/>
  <ellipse cx="35" cy="30" rx="8" ry="5" fill="#5BA0E0"/>
  <ellipse cx="60" cy="65" rx="10" ry="6" fill="#5BA0E0"/>
  <ellipse cx="35" cy="70" rx="5" ry="3" fill="#5BA0E0"/>
  <ellipse cx="65" cy="35" rx="4" ry="3" fill="#5BA0E0"/>
  <ellipse cx="50" cy="50" rx="3" ry="3" fill="#6AAF45"/>
  <ellipse cx="45" cy="55" rx="4" ry="2" fill="#6AAF45"/>
</svg>
